<svg width="24" height="24" viewBox="0 0 24 24" fill="none" xmlns="http://www.w3.org/2000/svg">
<path d="M4 16H6M4 12H7M4 8H6M8 20V18M12 20V17M16 20V18M5 20H19C19.2652 20 19.5196 19.8946 19.7071 19.7071C19.8946 19.5196 20 19.2652 20 19V14C20 13.7348 19.8946 13.4804 19.7071 13.2929C19.5196 13.1054 19.2652 13 19 13H12C11.7348 13 11.4804 12.8946 11.2929 12.7071C11.1054 12.5196 11 12.2652 11 12V5C11 4.73478 10.8946 4.48043 10.7071 4.29289C10.5196 4.10536 10.2652 4 10 4H5C4.73478 4 4.48043 4.10536 4.29289 4.29289C4.10536 4.48043 4 4.73478 4 5V19C4 19.2652 4.10536 19.5196 4.29289 19.7071C4.48043 19.8946 4.73478 20 5 20Z" stroke="#366CAB" stroke-width="1.5" stroke-linecap="round" stroke-linejoin="round"/>
</svg>
