<svg width="24" height="24" viewBox="0 0 24 24" fill="none" xmlns="http://www.w3.org/2000/svg">
<path d="M3 7V8C3 8.79565 3.31607 9.55871 3.87868 10.1213C4.44129 10.6839 5.20435 11 6 11C6.79565 11 7.55871 10.6839 8.12132 10.1213C8.68393 9.55871 9 8.79565 9 8M3 7H21M3 7L5 3H19L21 7M9 8V7M9 8C9 8.79565 9.31607 9.55871 9.87868 10.1213C10.4413 10.6839 11.2044 11 12 11C12.7956 11 13.5587 10.6839 14.1213 10.1213C14.6839 9.55871 15 8.79565 15 8M15 8V7M15 8C15 8.79565 15.3161 9.55871 15.8787 10.1213C16.4413 10.6839 17.2044 11 18 11C18.7956 11 19.5587 10.6839 20.1213 10.1213C20.6839 9.55871 21 8.79565 21 8V7M5 10.85V16M19 10.85V16M5 16V21H19V16M5 16H19" stroke="#366CAB" stroke-width="1.5" stroke-linecap="round" stroke-linejoin="round"/>
</svg>
